<svg width="29" height="28" viewBox="0 0 29 28" fill="none" xmlns="http://www.w3.org/2000/svg">
<g clip-path="url(#clip0_7008_6781)">
<path d="M10.2292 22.5833H14.6458C14.6458 23.7979 13.6521 24.7917 12.4375 24.7917C11.2229 24.7917 10.2292 23.7979 10.2292 22.5833ZM8.02083 21.4792H16.8542V19.2708H8.02083V21.4792ZM20.7188 10.9896C20.7188 15.2075 17.7817 17.46 16.556 18.1667H8.31896C7.09333 17.46 4.15625 15.2075 4.15625 10.9896C4.15625 6.41833 7.86625 2.70833 12.4375 2.70833C17.0087 2.70833 20.7188 6.41833 20.7188 10.9896ZM18.5104 10.9896C18.5104 7.64396 15.7831 4.91667 12.4375 4.91667C9.09188 4.91667 6.36458 7.64396 6.36458 10.9896C6.36458 13.7169 8.00979 15.2848 8.95937 15.9583H15.9156C16.8652 15.2848 18.5104 13.7169 18.5104 10.9896ZM26.096 8.63771L24.5833 9.33333L26.096 10.029L26.7917 11.5417L27.4873 10.029L29 9.33333L27.4873 8.63771L26.7917 7.125L26.096 8.63771ZM23.4792 7.125L24.5171 4.85042L26.7917 3.8125L24.5171 2.77458L23.4792 0.5L22.4412 2.77458L20.1667 3.8125L22.4412 4.85042L23.4792 7.125Z" fill="white"/>
</g>
<defs>
<clipPath id="clip0_7008_6781">
<rect width="26.5" height="26.5" fill="white" transform="translate(2.5 0.5)"/>
</clipPath>
</defs>
</svg>
