<svg width="29" height="28" viewBox="0 0 29 28" fill="none" xmlns="http://www.w3.org/2000/svg">
<path d="M12.6875 6.98145C10.8951 6.98145 9.14297 7.49327 7.65265 8.45219C6.16233 9.4111 5.00077 10.7741 4.31485 12.3687C3.62893 13.9633 3.44946 15.718 3.79914 17.4108C4.14882 19.1037 5.01194 20.6586 6.27935 21.8791C7.54676 23.0996 9.16154 23.9307 10.9195 24.2675C12.6775 24.6042 14.4996 24.4314 16.1556 23.7709C17.8115 23.1103 19.2269 21.9918 20.2227 20.5567C21.2185 19.1216 21.75 17.4343 21.75 15.7083H12.6875V6.98145Z" stroke="white" stroke-width="2.125" stroke-linecap="round" stroke-linejoin="round"/>
<path d="M16.3125 12.2176H25.375C25.375 9.90307 24.4202 7.68336 22.7207 6.04676C21.0211 4.41016 18.716 3.49072 16.3125 3.49072V12.2176Z" stroke="white" stroke-width="2.125" stroke-linecap="round" stroke-linejoin="round"/>
</svg>
