<svg width="27" height="27" viewBox="0 0 27 27" fill="none" xmlns="http://www.w3.org/2000/svg">
<g clip-path="url(#clip0_7008_6788)">
<path d="M7.72917 22.0833H12.1458C12.1458 23.2979 11.1521 24.2917 9.9375 24.2917C8.72292 24.2917 7.72917 23.2979 7.72917 22.0833ZM5.52083 20.9792H14.3542V18.7708H5.52083V20.9792ZM18.2188 10.4896C18.2188 14.7075 15.2817 16.96 14.056 17.6667H5.81896C4.59333 16.96 1.65625 14.7075 1.65625 10.4896C1.65625 5.91833 5.36625 2.20833 9.9375 2.20833C14.5087 2.20833 18.2188 5.91833 18.2188 10.4896ZM16.0104 10.4896C16.0104 7.14396 13.2831 4.41667 9.9375 4.41667C6.59188 4.41667 3.86458 7.14396 3.86458 10.4896C3.86458 13.2169 5.50979 14.7848 6.45937 15.4583H13.4156C14.3652 14.7848 16.0104 13.2169 16.0104 10.4896ZM23.596 8.13771L22.0833 8.83333L23.596 9.52896L24.2917 11.0417L24.9873 9.52896L26.5 8.83333L24.9873 8.13771L24.2917 6.625L23.596 8.13771ZM20.9792 6.625L22.0171 4.35042L24.2917 3.3125L22.0171 2.27458L20.9792 0L19.9412 2.27458L17.6667 3.3125L19.9412 4.35042L20.9792 6.625Z" fill="white"/>
</g>
<defs>
<clipPath id="clip0_7008_6788">
<rect width="26.5" height="26.5" fill="white"/>
</clipPath>
</defs>
</svg>
