<svg width="20" height="20" viewBox="0 0 20 20" fill="none" xmlns="http://www.w3.org/2000/svg">
<g clip-path="url(#clip0_7055_7007)">
<path d="M13.2674 0H6.03063C2.70051 0 0 2.70051 0 6.03063V13.2674C0 16.5975 2.70051 19.298 6.03063 19.298H13.2674C16.5975 19.298 19.298 16.5975 19.298 13.2674V6.03063C19.298 2.70051 16.5975 0 13.2674 0ZM17.4888 13.2674C17.4888 15.5952 15.5952 17.4888 13.2674 17.4888H6.03063C3.7028 17.4888 1.80919 15.5952 1.80919 13.2674V6.03063C1.80919 3.7028 3.7028 1.80919 6.03063 1.80919H13.2674C15.5952 1.80919 17.4888 3.7028 17.4888 6.03063V13.2674Z" fill="white"/>
<path d="M9.65263 4.82471C6.9883 4.82471 4.82812 6.98488 4.82812 9.64921C4.82812 12.3135 6.9883 14.4737 9.65263 14.4737C12.317 14.4737 14.4771 12.3135 14.4771 9.64921C14.4771 6.98488 12.317 4.82471 9.65263 4.82471ZM9.65263 12.6645C7.99059 12.6645 6.63731 11.3112 6.63731 9.64921C6.63731 7.98596 7.99059 6.63389 9.65263 6.63389C11.3147 6.63389 12.6679 7.98596 12.6679 9.64921C12.6679 11.3112 11.3147 12.6645 9.65263 12.6645Z" fill="white"/>
<path d="M14.8304 5.10604C15.1854 5.10604 15.4732 4.81822 15.4732 4.46318C15.4732 4.10813 15.1854 3.82031 14.8304 3.82031C14.4753 3.82031 14.1875 4.10813 14.1875 4.46318C14.1875 4.81822 14.4753 5.10604 14.8304 5.10604Z" fill="white"/>
</g>
<defs>
<clipPath id="clip0_7055_7007">
<rect width="19.298" height="19.298" fill="white"/>
</clipPath>
</defs>
</svg>
