<svg width="20" height="20" viewBox="0 0 20 20" fill="none" xmlns="http://www.w3.org/2000/svg">
<g clip-path="url(#clip0_7055_7018)">
<path d="M17.3682 0H1.9298C0.86841 0 0 0.86841 0 1.9298V17.3682C0 18.4296 0.86841 19.298 1.9298 19.298H17.3682C18.4296 19.298 19.298 18.4296 19.298 17.3682V1.9298C19.298 0.86841 18.4296 0 17.3682 0ZM5.7894 16.4033H2.8947V7.7192H5.7894V16.4033ZM4.34205 6.07887C3.37715 6.07887 2.60523 5.30695 2.60523 4.34205C2.60523 3.37715 3.37715 2.60523 4.34205 2.60523C5.30695 2.60523 6.07887 3.37715 6.07887 4.34205C6.07887 5.30695 5.30695 6.07887 4.34205 6.07887ZM16.4033 16.4033H13.5086V11.2893C13.5086 10.5174 12.8332 9.84198 12.0613 9.84198C11.2893 9.84198 10.6139 10.5174 10.6139 11.2893V16.4033H7.7192V7.7192H10.6139V8.87708C11.0964 8.10516 12.1577 7.52622 13.0262 7.52622C14.8595 7.52622 16.4033 9.07006 16.4033 10.9034V16.4033Z" fill="white"/>
</g>
<defs>
<clipPath id="clip0_7055_7018">
<rect width="19.298" height="19.298" fill="white"/>
</clipPath>
</defs>
</svg>
